<?xml version="1.0" encoding="UTF-8"?>
<!DOCTYPE svg PUBLIC "-//W3C//DTD SVG 1.1//EN" "http://www.w3.org/Graphics/SVG/1.1/DTD/svg11.dtd">
<!-- Creator: CorelDRAW -->
<svg xmlns="http://www.w3.org/2000/svg" xml:space="preserve" width="502px" height="144px" version="1.1" style="shape-rendering:geometricPrecision; text-rendering:geometricPrecision; image-rendering:optimizeQuality; fill-rule:evenodd; clip-rule:evenodd"
viewBox="0 0 521.74 149.15"
 xmlns:xlink="http://www.w3.org/1999/xlink"
 xmlns:xodm="http://www.corel.com/coreldraw/odm/2003">
 <defs>
  <style type="text/css">
   <![CDATA[
    .fil0 {fill:black}
    .fil1 {fill:black;fill-rule:nonzero}
   ]]>
  </style>
 </defs>
 <g id="Camada_x0020_1">
  <metadata id="CorelCorpID_0Corel-Layer"/>
  <g id="_2758446002928">
   <path class="fil0" d="M66.11 93.38c-3.4,2.5 -13.7,4.25 -22.07,17.91 -19.18,31.31 14.11,48.63 23.65,30.47 5.09,-9.67 -0.79,-22.68 12.58,-37.07 3.81,-4.11 6.88,1.14 22.87,3.92 23.52,4.09 47.24,2.51 68.1,-8.69 7.59,-4.08 18.54,-12.68 21.33,-18.92 -1.12,0.28 -16.85,8.43 -29.37,12.22 -31.48,9.51 -65.65,6.09 -95.22,-7.76 -3.42,-1.6 -13.1,-7.61 -14.88,-8l5.91 8.17c2.58,3.1 4.52,4.92 7.1,7.75zm-10.31 25.57c5.84,-10.16 5.3,-16.17 17.16,-20.87 -5.09,-5.05 -9.59,0.21 -12.37,4.63 -2.08,3.32 -5.53,11.53 -4.79,16.24z"/>
   <path class="fil0" d="M24.17 80.88c-2.39,-3.43 -7.88,-3.58 -10.75,-10.93 -3.18,-8.11 -8.14,-9.15 -11.61,-4.9 -5.96,7.32 3.14,18.93 22.36,15.83z"/>
   <path class="fil0" d="M33.64 87.35c-11.81,2.13 -13.68,9.21 -8.05,12.18 2.78,1.46 6.42,-0.24 7.17,-3.44 0.35,-1.49 0.04,-2.48 0.06,-4.49 0.02,-2.33 0.27,-2.01 0.82,-4.25z"/>
   <path class="fil1" d="M72.29 76.83l17.36 0 -23.15 -28.51c8.26,-3.97 14.04,-12.32 14.04,-21.65 0,-13.71 -11.14,-24.86 -24.97,-24.86l-13.61 0 -14.78 0 0 75.02 14.78 0 0 -26.05 9.11 0 21.22 26.05zm-30.33 -61.19l13.61 0c5.58,0 10.18,4.82 10.18,11.03 0,6.22 -4.6,11.15 -10.18,11.15l-13.61 0 0 -22.18zm71.37 6.1c-11.78,0 -21.75,7.08 -21.75,19.72l13.5 0c0,-4.18 3.22,-6.86 8.25,-6.86 5.15,0 8.36,2.68 8.36,9.01l0 5.67c-3.1,-2.67 -7.82,-4.71 -14.57,-4.71 -9.54,0 -18,5.57 -18,16.82 0,11.26 8.46,16.94 18,16.94 6.75,0 11.47,-2.36 14.57,-6.11l0 4.61 13.51 0 0 -34.08c0,-13.93 -9.97,-21.01 -21.87,-21.01zm-1.5 46.3c-6.1,0 -8.89,-2.79 -8.89,-6.65 0,-3.85 2.79,-6.64 8.89,-6.64 6.11,0 9.86,2.57 9.86,6.64 0,3.86 -3.75,6.65 -9.86,6.65zm63.02 -46.3c-6.65,0 -11.58,2.47 -14.58,6.97l0 -5.47 -13.82 0 0 53.59 13.82 0 0 -31.08c0,-8.04 4.18,-11.15 9.65,-11.15 4.82,0 8.46,2.9 8.46,9.01l0 33.22 13.83 0 0 -34.3c0,-13.07 -7.4,-20.79 -17.36,-20.79zm69.65 1.5l0 6.65c-3.85,-5.04 -9.75,-8.15 -17.79,-8.15 -14.25,0 -26.04,12.33 -26.04,27.44 0,15.21 11.79,27.43 26.04,27.43 8.04,0 13.94,-3 17.79,-8.04l0 5.68c0,8.47 -5.25,13.18 -13.93,13.18 -8.36,0 -12.86,-4.39 -12.86,-9.1l-13.82 0c0,13.93 12.86,21.43 26.68,21.43 13.4,0 27.44,-7.93 27.44,-25.51l0 -51.01 -13.51 0zm-15 40.62c-8.68,0 -15,-6.11 -15,-14.68 0,-8.47 6.32,-14.58 15,-14.58 8.68,0 15,6.11 15,14.58 0,8.57 -6.32,14.68 -15,14.68zm71.37 -40.62l0 30.97c0,8.15 -4.28,11.26 -9.75,11.26 -4.82,0 -8.47,-2.9 -8.47,-9l0 -33.23 -13.82 0 0 34.19c0,13.18 7.5,20.9 17.47,20.9 6.64,0 11.57,-2.47 14.57,-7.08l0 5.58 13.83 0 0 -53.59 -13.83 0zm26.47 53.59l13.83 0 0 -53.59 -13.83 0 0 53.59zm54.87 -55.09c-6.64,0 -11.57,2.47 -14.57,6.97l0 -5.47 -13.83 0 0 53.59 13.83 0 0 -31.08c0,-8.04 4.17,-11.15 9.64,-11.15 4.82,0 8.47,2.9 8.47,9.01l0 33.22 13.82 0 0 -34.3c0,-13.07 -7.39,-20.79 -17.36,-20.79zm57.01 0c-6.64,0 -11.57,2.47 -14.57,6.97l0 -26.9 -13.83 0 0 75.02 13.83 0 0 -31.08c0,-8.04 4.18,-11.15 9.64,-11.15 4.82,0 8.47,2.9 8.47,9.01l0 33.22 13.82 0 0 -34.3c0,-13.07 -7.39,-20.79 -17.36,-20.79zm54.12 56.59c15.75,0 28.4,-12.33 28.4,-28.3 0,-15.96 -12.65,-28.29 -28.4,-28.29 -15.75,0 -28.29,12.33 -28.29,28.29 0,15.97 12.54,28.3 28.29,28.3zm0 -13.51c-8.15,0 -14.47,-6.1 -14.47,-14.79 0,-8.68 6.32,-14.78 14.47,-14.78 8.25,0 14.57,6.1 14.57,14.78 0,8.69 -6.32,14.79 -14.57,14.79z"/>
   <path class="fil0" d="M330.98 0c-0.16,0.87 1.88,3.69 -1.91,7.9 -2.82,3.12 -5.66,9.34 3.58,10.5 9.28,0.05 12.67,-9.29 -0.94,-17.95 -0.24,-0.15 -0.48,-0.3 -0.73,-0.45z"/>
  </g>
 </g>
</svg>
