<?xml version="1.0" encoding="UTF-8"?>
<!DOCTYPE svg PUBLIC "-//W3C//DTD SVG 1.1//EN" "http://www.w3.org/Graphics/SVG/1.1/DTD/svg11.dtd">
<!-- Creator: CorelDRAW -->
<svg xmlns="http://www.w3.org/2000/svg" xml:space="preserve" width="502px" height="144px" version="1.1" style="shape-rendering:geometricPrecision; text-rendering:geometricPrecision; image-rendering:optimizeQuality; fill-rule:evenodd; clip-rule:evenodd"
viewBox="0 0 127.1 36.33"
 xmlns:xlink="http://www.w3.org/1999/xlink"
 xmlns:xodm="http://www.corel.com/coreldraw/odm/2003">
 <defs>
  <style type="text/css">
   <![CDATA[
    .fil0 {fill:#FF6600}
    .fil1 {fill:black;fill-rule:nonzero}
   ]]>
  </style>
 </defs>
 <g id="Camada_x0020_1">
  <metadata id="CorelCorpID_0Corel-Layer"/>
  <path class="fil0" d="M16.1 22.75c-0.82,0.61 -3.33,1.03 -5.37,4.36 -4.67,7.63 3.44,11.85 5.76,7.43 1.24,-2.36 -0.19,-5.53 3.06,-9.04 0.93,-1 1.68,0.28 5.58,0.96 5.73,1 11.5,0.61 16.59,-2.12 1.85,-0.99 4.51,-3.09 5.19,-4.61 -0.27,0.07 -4.1,2.06 -7.15,2.98 -7.67,2.32 -16,1.48 -23.2,-1.89 -0.83,-0.39 -3.19,-1.85 -3.62,-1.95l1.43 1.99c0.63,0.76 1.11,1.2 1.73,1.89zm-2.51 6.23c1.43,-2.48 1.3,-3.94 4.18,-5.09 -1.24,-1.23 -2.33,0.05 -3.01,1.13 -0.51,0.81 -1.35,2.81 -1.17,3.96z"/>
  <path class="fil0" d="M5.89 19.7c-0.58,-0.83 -1.92,-0.87 -2.62,-2.66 -0.77,-1.98 -1.98,-2.23 -2.83,-1.19 -1.45,1.78 0.77,4.61 5.45,3.85z"/>
  <path class="fil0" d="M8.2 21.28c-2.88,0.52 -3.34,2.24 -1.96,2.97 0.67,0.35 1.56,-0.06 1.74,-0.84 0.09,-0.36 0.01,-0.61 0.01,-1.1 0.01,-0.56 0.07,-0.48 0.21,-1.03z"/>
  <path class="fil1" d="M17.61 18.72l4.23 0 -5.64 -6.95c2.01,-0.96 3.42,-3 3.42,-5.27 0,-3.34 -2.71,-6.06 -6.08,-6.06l-3.32 0 -3.6 0 0 18.28 3.6 0 0 -6.35 2.22 0 5.17 6.35zm-7.39 -14.91l3.32 0c1.36,0 2.48,1.17 2.48,2.69 0,1.51 -1.12,2.71 -2.48,2.71l-3.32 0 0 -5.4zm17.39 1.49c-2.87,0 -5.3,1.72 -5.3,4.8l3.29 0c0,-1.02 0.78,-1.67 2.01,-1.67 1.25,0 2.04,0.65 2.04,2.19l0 1.39c-0.76,-0.66 -1.91,-1.15 -3.55,-1.15 -2.33,0 -4.39,1.36 -4.39,4.1 0,2.74 2.06,4.12 4.39,4.12 1.64,0 2.79,-0.57 3.55,-1.49l0 1.13 3.29 0 0 -8.31c0,-3.39 -2.43,-5.11 -5.33,-5.11zm-0.37 11.27c-1.48,0 -2.16,-0.67 -2.16,-1.61 0,-0.94 0.68,-1.62 2.16,-1.62 1.49,0 2.41,0.62 2.41,1.62 0,0.94 -0.92,1.61 -2.41,1.61zm15.35 -11.27c-1.61,0 -2.81,0.6 -3.55,1.69l0 -1.33 -3.36 0 0 13.06 3.36 0 0 -7.58c0,-1.95 1.02,-2.71 2.35,-2.71 1.18,0 2.07,0.7 2.07,2.19l0 8.1 3.36 0 0 -8.36c0,-3.18 -1.8,-5.06 -4.23,-5.06zm16.97 0.36l0 1.62c-0.94,-1.23 -2.37,-1.98 -4.33,-1.98 -3.47,0 -6.34,3 -6.34,6.68 0,3.71 2.87,6.68 6.34,6.68 1.96,0 3.39,-0.73 4.33,-1.95l0 1.38c0,2.06 -1.28,3.21 -3.39,3.21 -2.04,0 -3.13,-1.07 -3.13,-2.22l-3.37 0c0,3.39 3.13,5.22 6.5,5.22 3.26,0 6.68,-1.93 6.68,-6.21l0 -12.43 -3.29 0zm-3.65 9.9c-2.12,0 -3.66,-1.49 -3.66,-3.58 0,-2.06 1.54,-3.55 3.66,-3.55 2.11,0 3.65,1.49 3.65,3.55 0,2.09 -1.54,3.58 -3.65,3.58zm17.39 -9.9l0 7.55c0,1.98 -1.05,2.74 -2.38,2.74 -1.17,0 -2.06,-0.71 -2.06,-2.19l0 -8.1 -3.37 0 0 8.33c0,3.21 1.83,5.09 4.26,5.09 1.61,0 2.81,-0.6 3.55,-1.72l0 1.36 3.36 0 0 -13.06 -3.36 0zm6.44 13.06l3.37 0 0 -13.06 -3.37 0 0 13.06zm13.37 -13.42c-1.62,0 -2.82,0.6 -3.55,1.69l0 -1.33 -3.37 0 0 13.06 3.37 0 0 -7.58c0,-1.95 1.02,-2.71 2.35,-2.71 1.17,0 2.06,0.7 2.06,2.19l0 8.1 3.37 0 0 -8.36c0,-3.18 -1.8,-5.06 -4.23,-5.06zm13.89 0c-1.62,0 -2.82,0.6 -3.55,1.69l0 -6.55 -3.37 0 0 18.28 3.37 0 0 -7.58c0,-1.95 1.02,-2.71 2.35,-2.71 1.17,0 2.06,0.7 2.06,2.19l0 8.1 3.37 0 0 -8.36c0,-3.18 -1.8,-5.06 -4.23,-5.06zm13.18 13.78c3.84,0 6.92,-3 6.92,-6.89 0,-3.89 -3.08,-6.89 -6.92,-6.89 -3.84,0 -6.89,3 -6.89,6.89 0,3.89 3.05,6.89 6.89,6.89zm0 -3.29c-1.98,0 -3.52,-1.49 -3.52,-3.6 0,-2.12 1.54,-3.6 3.52,-3.6 2.01,0 3.55,1.48 3.55,3.6 0,2.11 -1.54,3.6 -3.55,3.6z"/>
  <path class="fil0" d="M80.63 0c-0.04,0.21 0.46,0.9 -0.46,1.92 -0.69,0.76 -1.38,2.28 0.87,2.56 2.26,0.01 3.08,-2.26 -0.23,-4.37 -0.06,-0.04 -0.12,-0.07 -0.18,-0.11z"/>
 </g>
</svg>
