<?xml version="1.0" encoding="UTF-8"?>
<!DOCTYPE svg PUBLIC "-//W3C//DTD SVG 1.1//EN" "http://www.w3.org/Graphics/SVG/1.1/DTD/svg11.dtd">
<!-- Creator: CorelDRAW 2018 (64 Bit Versão de avaliação) -->
<svg xmlns="http://www.w3.org/2000/svg" xml:space="preserve" width="128px" height="128px" version="1.1" style="shape-rendering:geometricPrecision; text-rendering:geometricPrecision; image-rendering:optimizeQuality; fill-rule:evenodd; clip-rule:evenodd"
viewBox="0 0 4609000 4609000"
 xmlns:xlink="http://www.w3.org/1999/xlink">
 <defs>
  <style type="text/css">
   <![CDATA[
    .fil0 {fill:#C54628}
    .fil1 {fill:white}
   ]]>
  </style>
 </defs>
 <g id="Camada_x0020_1">
  <metadata id="CorelCorpID_0Corel-Layer"/>
  <g id="_2173015899136">
   <rect class="fil0" width="4609000" height="4609000" rx="293000" ry="293000"/>
   <path class="fil1" d="M1539000 1143000l2311000 489000c43000,10000 119000,30000 162000,30000 2000,-93000 37000,-189000 41000,-273000l0 -22000c-2000,-49000 -18000,-93000 -60000,-130000 -56000,-49000 -357000,-98000 -434000,-113000 -492000,-97000 -1009000,-220000 -1499000,-317000 -99000,-20000 -240000,-60000 -336000,-60000 -73000,0 -135000,69000 -149000,138000 -8000,44000 -12000,79000 -19000,124000 -8000,49000 -17000,81000 -17000,134000zm-341000 2411000c26000,0 225000,-56000 261000,-68000 105000,-34000 51000,-130000 15000,-256000 -51000,-182000 -46000,-145000 -266000,-90000 -193000,48000 -155000,57000 -99000,270000 14000,53000 25000,144000 89000,144000zm-341000 -635000l1226000 -338000c48000,-14000 92000,-25000 139000,-39000l820000 -224000c5000,65000 212000,737000 212000,792000 0,25000 -231000,78000 -261000,87000l-1780000 494000c-57000,17000 -92000,30000 -138000,27000l-165000 -593000c-12000,-42000 -52000,-169000 -53000,-206000zm2731000 -390000c-47000,0 -139000,-22000 -186000,-33000 -123000,-29000 -157000,-13000 -120000,-170000 62000,-261000 6000,-247000 274000,-195000 182000,36000 154000,35000 109000,263000 -12000,59000 -16000,135000 -77000,135000zm-2820000 96000c-2000,-25000 -10000,-43000 -16000,-66000 -12000,-41000 -53000,-180000 -53000,-207000 0,-28000 28000,-28000 49000,-34000l203000 -56000c439000,-129000 915000,-249000 1358000,-377000 69000,-20000 517000,-148000 548000,-148000 31000,0 44000,79000 57000,128000 6000,25000 12000,48000 20000,76000 6000,21000 17000,49000 19000,76000 -244000,57000 -561000,162000 -818000,227000 -262000,67000 -560000,162000 -818000,227000l-273000 75000c-49000,13000 -92000,25000 -139000,39000 -36000,10000 -107000,25000 -137000,40000zm-212000 -280000c0,78000 30000,140000 51000,223000l165000 592000c38000,136000 70000,262000 109000,397000 47000,163000 61000,362000 303000,289000l1560000 -433000c104000,-29000 528000,-133000 589000,-176000 110000,-78000 45000,-237000 15000,-338000 -6000,-21000 -14000,-48000 -19000,-69000 133000,11000 317000,124000 415000,-29000 30000,-45000 89000,-378000 108000,-459000l64000 -311000 -860000 -178000c-3000,-28000 -36000,-144000 -53000,-173000 -83000,-142000 -232000,-73000 -377000,-31000 -35000,10000 -68000,18000 -107000,30000 -155000,43000 -81000,37000 -232000,7000 -107000,-21000 -795000,-174000 -843000,-174000 -8000,17000 -15000,63000 -19000,83000 -8000,32000 -13000,57000 -19000,90000l-56000 265000c-17000,74000 22000,49000 -215000,114000 -115000,31000 -222000,60000 -337000,93000 -85000,24000 -242000,45000 -242000,188000z"/>
  </g>
 </g>
</svg>
