<?xml version="1.0" encoding="UTF-8"?>
<!DOCTYPE svg PUBLIC "-//W3C//DTD SVG 1.1//EN" "http://www.w3.org/Graphics/SVG/1.1/DTD/svg11.dtd">
<!-- Creator: CorelDRAW 2018 (64 Bit Versão de avaliação) -->
<svg xmlns="http://www.w3.org/2000/svg" xml:space="preserve" width="128px" height="128px" version="1.1" style="shape-rendering:geometricPrecision; text-rendering:geometricPrecision; image-rendering:optimizeQuality; fill-rule:evenodd; clip-rule:evenodd"
viewBox="0 0 19594000 19594000"
 xmlns:xlink="http://www.w3.org/1999/xlink">
 <defs>
  <style type="text/css">
   <![CDATA[
    .fil0 {fill:none}
    .fil1 {fill:#4D4D4D}
   ]]>
  </style>
 </defs>
 <g id="Camada_x0020_1">
  <metadata id="CorelCorpID_0Corel-Layer"/>
  <g id="_2172889359920">
   <rect class="fil0" width="19594000" height="19594000" rx="1248000" ry="1248000"/>
   <path class="fil1" d="M6545000 4859000l9825000 2079000c180000,42000 502000,128000 685000,128000 9000,-397000 161000,-804000 174000,-1162000l0 -94000c-8000,-207000 -73000,-395000 -253000,-552000 -236000,-206000 -1519000,-414000 -1845000,-478000 -2091000,-413000 -4288000,-936000 -6372000,-1351000 -421000,-84000 -1020000,-254000 -1430000,-254000 -310000,0 -573000,294000 -631000,589000 -37000,185000 -51000,334000 -82000,527000 -33000,206000 -71000,341000 -71000,568000zm-1452000 10249000c111000,0 958000,-238000 1108000,-286000 448000,-145000 217000,-555000 66000,-1091000 -218000,-771000 -197000,-616000 -1133000,-382000 -818000,204000 -656000,244000 -418000,1149000 59000,224000 104000,610000 377000,610000zm-1451000 -2700000l5213000 -1435000c205000,-58000 390000,-106000 590000,-165000l3487000 -955000c23000,280000 900000,3137000 900000,3368000 0,107000 -978000,334000 -1109000,371000l-7568000 2100000c-242000,72000 -389000,129000 -584000,113000l-703000 -2520000c-49000,-179000 -222000,-719000 -226000,-877000zm11613000 -1655000c-200000,0 -593000,-93000 -790000,-139000 -526000,-125000 -670000,-56000 -511000,-726000 262000,-1109000 24000,-1051000 1163000,-826000 776000,153000 656000,148000 465000,1118000 -50000,250000 -68000,573000 -327000,573000zm-11991000 406000c-8000,-104000 -40000,-182000 -68000,-279000 -51000,-174000 -222000,-765000 -222000,-882000 0,-116000 115000,-118000 206000,-142000l865000 -239000c1865000,-548000 3889000,-1058000 5770000,-1603000 294000,-86000 2200000,-629000 2333000,-629000 130000,0 185000,336000 239000,546000 26000,105000 54000,202000 87000,319000 26000,91000 71000,210000 81000,326000 -1037000,241000 -2387000,686000 -3478000,964000 -1115000,283000 -2382000,690000 -3478000,963000l-1161000 320000c-206000,58000 -389000,107000 -590000,166000 -154000,45000 -453000,108000 -584000,170000zm-900000 -1190000c0,331000 128000,598000 215000,947000l702000 2520000c163000,577000 300000,1110000 464000,1685000 199000,695000 258000,1541000 1287000,1232000l6635000 -1842000c441000,-125000 2244000,-568000 2502000,-750000 470000,-331000 192000,-1009000 66000,-1437000 -25000,-87000 -62000,-202000 -83000,-293000 564000,47000 1347000,526000 1766000,-121000 126000,-193000 378000,-1608000 458000,-1952000l273000 -1324000 -3659000 -755000c-10000,-121000 -149000,-612000 -222000,-736000 -353000,-606000 -989000,-313000 -1604000,-132000 -148000,44000 -288000,78000 -455000,125000 -661000,186000 -345000,161000 -987000,34000 -453000,-90000 -3379000,-743000 -3584000,-743000 -34000,72000 -61000,270000 -81000,354000 -32000,134000 -52000,241000 -81000,384000l-238000 1126000c-71000,313000 95000,208000 -912000,482000 -490000,133000 -942000,255000 -1433000,396000 -363000,103000 -1029000,194000 -1029000,800000z"/>
  </g>
 </g>
</svg>
