<?xml version="1.0" encoding="UTF-8"?>
<!DOCTYPE svg PUBLIC "-//W3C//DTD SVG 1.1//EN" "http://www.w3.org/Graphics/SVG/1.1/DTD/svg11.dtd">
<!-- Creator: CorelDRAW 2018 (64 Bit Versão de avaliação) -->
<svg xmlns="http://www.w3.org/2000/svg" xml:space="preserve" width="128px" height="128px" version="1.1" style="shape-rendering:geometricPrecision; text-rendering:geometricPrecision; image-rendering:optimizeQuality; fill-rule:evenodd; clip-rule:evenodd"
viewBox="0 0 3039000 3039000"
 xmlns:xlink="http://www.w3.org/1999/xlink">
 <defs>
  <style type="text/css">
   <![CDATA[
    .fil0 {fill:none}
    .fil1 {fill:#4D4D4D}
   ]]>
  </style>
 </defs>
 <g id="Camada_x0020_1">
  <metadata id="CorelCorpID_0Corel-Layer"/>
  <g id="_2173089354384">
   <rect class="fil0" width="3039000" height="3039000" rx="194000" ry="194000"/>
   <path class="fil1" d="M1463000 880000c457000,-95000 584000,593000 141000,683000 -148000,30000 -297000,-37000 -366000,-154000 -22000,-37000 -39000,-74000 -49000,-120000 -37000,-182000 74000,-368000 274000,-409000zm-976000 418000c14000,48000 82000,152000 110000,201000 40000,67000 78000,140000 117000,205000l232000 400000c49000,-15000 1258000,-725000 1413000,-812000 65000,-36000 143000,-88000 205000,-114000 -23000,-63000 -78000,-143000 -113000,-205000 -90000,-159000 -277000,-463000 -348000,-606000l-1616000 931000zm446000 942000c-22000,-17000 -347000,-578000 -361000,-626000l-69000 33000 211000 379000c40000,66000 183000,337000 219000,371000 155000,-75000 1155000,-681000 1369000,-809000 34000,-20000 67000,-39000 98000,-57000l99000 -61000c1000,-1000 4000,-4000 6000,-6000l-59000 -110000c-50000,19000 -135000,76000 -188000,107000 -63000,36000 -126000,72000 -190000,111000 -122000,75000 -253000,154000 -377000,225000l-758000 443000zm-11000 296000c-2000,-1000 -4000,-7000 -5000,-5000l-182000 -298000c-29000,-49000 -58000,-100000 -89000,-150000 -19000,-31000 -28000,-49000 -46000,-78000 -8000,-14000 -15000,-26000 -24000,-39000l-27000 -37000c-28000,16000 -49000,29000 -73000,54000l433000 690000 1601000 -949000c-15000,-29000 -51000,-77000 -82000,-94000l-1506000 906000zm656000 -1456000c-6000,-34000 -7000,-36000 -26000,-65000 -40000,8000 -47000,10000 -84000,26000l-27000 -41000 -48000 29000 21000 45000c-22000,16000 -41000,39000 -43000,90000 -9000,127000 120000,99000 201000,94000 46000,-3000 78000,13000 44000,60000 -21000,27000 -68000,47000 -122000,63000 4000,59000 10000,49000 21000,71000l94000 -27000 33000 45000 50000 -22000 -23000 -67000c40000,-51000 83000,-121000 5000,-181000 -47000,-37000 -106000,-16000 -164000,-16000 -53000,1000 -67000,-28000 -44000,-53000 27000,-30000 76000,-40000 112000,-51000z"/>
  </g>
 </g>
</svg>
