<?xml version="1.0" encoding="UTF-8"?>
<!DOCTYPE svg PUBLIC "-//W3C//DTD SVG 1.1//EN" "http://www.w3.org/Graphics/SVG/1.1/DTD/svg11.dtd">
<!-- Creator: CorelDRAW 2018 (64 Bit Versão de avaliação) -->
<svg xmlns="http://www.w3.org/2000/svg" xml:space="preserve" width="128px" height="128px" version="1.1" style="shape-rendering:geometricPrecision; text-rendering:geometricPrecision; image-rendering:optimizeQuality; fill-rule:evenodd; clip-rule:evenodd"
viewBox="0 0 14135000 14135000"
 xmlns:xlink="http://www.w3.org/1999/xlink">
 <defs>
  <style type="text/css">
   <![CDATA[
    .fil0 {fill:#C54628}
    .fil1 {fill:white}
   ]]>
  </style>
 </defs>
 <g id="Camada_x0020_1">
  <metadata id="CorelCorpID_0Corel-Layer"/>
  <g id="_2172899983552">
   <rect class="fil0" width="14135000" height="14135000" rx="900000" ry="900000"/>
   <path class="fil1" d="M6804000 4090000c2123000,-441000 2714000,2762000 654000,3180000 -687000,139000 -1379000,-174000 -1703000,-719000 -100000,-169000 -180000,-341000 -225000,-558000 -172000,-843000 343000,-1709000 1274000,-1903000zm-4541000 1948000c68000,222000 383000,705000 515000,932000 182000,312000 359000,652000 544000,953000l1077000 1864000c229000,-73000 5848000,-3374000 6572000,-3779000 300000,-168000 663000,-408000 953000,-531000 -109000,-290000 -361000,-662000 -525000,-950000 -420000,-740000 -1288000,-2153000 -1621000,-2821000l-7515000 4332000zm2074000 4380000c-99000,-81000 -1613000,-2691000 -1677000,-2910000l-323000 153000 984000 1759000c184000,307000 851000,1571000 1016000,1725000 722000,-349000 5372000,-3165000 6369000,-3759000 158000,-94000 310000,-181000 457000,-268000l457000 -283000c7000,-5000 20000,-16000 30000,-25000l-273000 -514000c-234000,91000 -629000,355000 -877000,498000 -295000,170000 -583000,336000 -881000,518000 -570000,349000 -1180000,716000 -1757000,1043000l-3525000 2063000zm-48000 1377000c-9000,-8000 -22000,-34000 -26000,-26000l-845000 -1384000c-136000,-228000 -268000,-465000 -414000,-698000 -89000,-143000 -132000,-226000 -214000,-365000 -37000,-62000 -70000,-118000 -110000,-178000l-129000 -174000c-128000,76000 -227000,137000 -340000,254000l2018000 3205000 7445000 -4412000c-73000,-132000 -241000,-356000 -385000,-438000l-7000000 4216000zm3050000 -6774000c-30000,-157000 -34000,-165000 -121000,-299000 -186000,36000 -219000,45000 -391000,121000l-127000 -194000 -221000 138000 97000 207000c-104000,74000 -189000,180000 -202000,420000 -40000,590000 561000,462000 936000,436000 215000,-15000 362000,59000 203000,278000 -94000,129000 -316000,219000 -567000,296000 19000,273000 47000,225000 100000,330000l435000 -129000 154000 209000 233000 -102000 -108000 -308000c186000,-240000 386000,-565000 26000,-843000 -221000,-171000 -494000,-76000 -766000,-73000 -244000,3000 -309000,-131000 -200000,-250000 125000,-136000 353000,-185000 519000,-237000z"/>
  </g>
 </g>
</svg>
