<?xml version="1.0" encoding="UTF-8"?>
<!DOCTYPE svg PUBLIC "-//W3C//DTD SVG 1.1//EN" "http://www.w3.org/Graphics/SVG/1.1/DTD/svg11.dtd">
<!-- Creator: CorelDRAW 2018 (64 Bit Versão de avaliação) -->
<svg xmlns="http://www.w3.org/2000/svg" xml:space="preserve" width="531px" height="267px" version="1.1" style="shape-rendering:geometricPrecision; text-rendering:geometricPrecision; image-rendering:optimizeQuality; fill-rule:evenodd; clip-rule:evenodd"
viewBox="0 0 240.96 120.84"
 xmlns:xlink="http://www.w3.org/1999/xlink">
 <defs>
  <style type="text/css">
   <![CDATA[
    .fil1 {fill:none}
    .fil0 {fill:#333333}
   ]]>
  </style>
 </defs>
 <g id="Camada_x0020_1">
  <metadata id="CorelCorpID_0Corel-Layer"/>
  <path class="fil0" d="M185.33 89.84c-0.02,-6.5 -0.04,-13.01 -0.06,-19.52 0.15,-6.53 -6.21,-11.29 -12.12,-11.9 -2.36,-0.15 -3.53,-0.22 -5.89,-0.35 -2.37,-0.13 -4.19,-1.83 -4.19,-3.94 -0.02,-4.91 -0.03,-9.8 -0.04,-14.71 -0.01,-2.01 1.91,-3.56 4.17,-3.49 0.05,0.01 0.07,0.01 0.11,0.01 2.26,0.07 4.19,1.77 4.2,3.8 0,2.27 0.01,3.41 0.02,5.68 4.57,1.97 9.13,3.97 13.68,6 -0.01,-4.71 -0.02,-7.07 -0.04,-11.78 0.21,-6.56 -6.2,-11.06 -12.12,-11.43 -4.47,-0.13 -6.71,-0.19 -11.18,-0.29 -6.08,-0.4 -11.76,4.37 -12.08,10.43 0.01,5.35 0.02,10.7 0.03,16.04 0.38,6.11 6.04,11.13 12.15,11.25 2.26,0.13 3.39,0.19 5.66,0.34 2.26,0.24 3.96,1.99 3.97,4.02 0.01,5.86 0.03,11.72 0.05,17.57 0.01,2.13 -1.91,3.57 -4.18,3.37 -0.04,-0.01 -0.07,-0.01 -0.11,-0.01 -2.38,-0.21 -4.2,-1.97 -4.2,-4.08 -0.01,-2.34 -0.02,-3.51 -0.02,-5.84 -4.41,-1.97 -8.83,-3.9 -13.28,-5.79 0.02,4.62 0.02,6.93 0.03,11.56 0.37,6.17 6.01,11.24 12.16,11.55 4.49,0.38 6.73,0.6 11.22,1.1 5.62,0.45 12.42,-3.07 12.06,-9.59zm-153.62 -30.84c0,0.97 0,2.04 -0.91,2.57 -3.1,1.62 -4.66,2.45 -7.76,4.14 0.02,-7.71 0.03,-15.43 0.04,-23.14 0.01,-2.18 2.04,-4.18 4.29,-4.33 0.04,0 0.07,-0.01 0.11,-0.01 2.37,-0.15 4.28,1.55 4.27,3.7 -0.01,5.69 -0.02,11.38 -0.04,17.07zm-0.08 33.4c0,2.15 -1.91,4.3 -4.27,4.72 -0.05,0 -0.07,0.01 -0.11,0.02 -2.36,0.42 -4.15,-1.1 -4.14,-3.28 0,-5.6 0.02,-11.21 0.03,-16.81 2.78,-1.58 4.17,-2.36 6.97,-3.88 1.01,0.61 1.56,1.62 1.56,2.91 -0.01,5.44 -0.03,10.88 -0.04,16.32zm1.39 -62.88c-8.64,0.41 -17.27,0.87 -25.9,1.4l0 0.23c1.57,0.47 2.59,1.86 2.7,3.65 -0.01,23.5 -0.02,46.99 -0.03,70.49 -0.11,1.82 -1.12,3.51 -2.67,4.45l0 0.22c8.52,-2.06 17.1,-3.86 25.72,-5.44 5.96,-1.36 12.2,-6.63 12.07,-13.28 0.01,-5.88 0.03,-11.76 0.05,-17.64 0.01,-3.36 -1.45,-6.14 -4.26,-7.86 2.82,-2.41 4.3,-5.47 4.31,-8.72 0.02,-5.6 0.03,-11.2 0.05,-16.8l0 -0.21c0.28,-6.44 -6.32,-10.54 -12.04,-10.49zm44.97 29.43c-0.01,2.02 -1.94,3.83 -4.31,3.98 -2.38,0.14 -4.3,-1.46 -4.29,-3.49 0.02,-6.53 0.04,-13.07 0.06,-19.6 0,-2.13 1.93,-3.83 4.3,-3.91 0.14,0 0.21,0 0.34,-0.01 2.38,-0.08 3.96,1.49 3.95,3.6 -0.02,6.48 -0.03,12.96 -0.05,19.43zm13.06 35c0.01,-5.38 0.02,-10.76 0.03,-16.14 0.01,-3.49 -1.34,-6.93 -6.78,-8.35 -0.09,0.01 -0.13,0.01 -0.22,0.02 3.68,-1.37 7.13,-5.77 7.04,-9.81 0.02,-7.17 0.03,-14.34 0.04,-21.52 0.25,-6.3 -6.32,-10.16 -11.84,-10.23 -8.55,0.18 -17.11,0.43 -25.65,0.74l0 0.21c1.47,0.46 2.7,1.76 2.7,3.1 -0.07,21.71 -0.14,43.43 -0.21,65.14 0,1.55 -1.13,3.14 -2.72,3.88l0 0.21c6.18,-0.83 12.35,-1.57 18.55,-2.23l0 -0.2c-1.58,-0.45 -2.71,-1.65 -2.71,-3.17 0.03,-8.06 0.05,-16.12 0.07,-24.17 1.86,-0.15 2.79,-0.21 4.64,-0.34 0.09,-0.01 0.14,-0.01 0.23,-0.02 2.38,-0.15 3.73,0.57 3.73,2.68 -0.02,7.01 -0.04,14.03 -0.06,21.04 0,1.51 -1.14,3.02 -2.73,3.67 0,0.08 0,0.12 0,0.21 6.2,-0.55 12.4,-1.01 18.61,-1.39l0 -0.2c-1.59,-0.41 -2.72,-1.63 -2.72,-3.13zm34.64 -33.11c-3.28,-1.25 -5.02,-1.9 -8.13,-3.05 -0.2,0 -0.42,0 -0.64,0 0,-2.92 0.01,-5.85 0.01,-8.77 0,-3.42 0,-6.85 0,-10.27 0,-2.12 1.97,-3.85 4.4,-3.85 2.44,0 4.41,1.73 4.41,3.85 0,3.56 0,7.11 0,10.65 0,2.8 0.01,5.61 0.01,8.4zm13.48 35.64c-0.03,-18.43 -0.05,-36.86 -0.08,-55.29 0,-0.03 0.01,-0.07 0,-0.1 1.4,-4.93 0.73,-10.74 -2.27,-15.94 -0.54,3.21 -0.54,5.42 -2.01,8.08 -0.19,0.35 -0.4,0.7 -0.64,1.06 0.09,-0.45 0.17,-0.9 0.23,-1.34 1.75,-12.7 -10.91,-23.1 -21.79,-26.5 2.9,5.92 4.43,10.74 4.28,17.35 -1.92,-4.38 -3.04,-5.49 -5.03,-8.04 0,0 0.1,4.15 -0.81,6.06 -1.52,3.2 -4.3,5.81 -6.39,8.77 -2.14,3.07 -2.55,6.78 -1.78,10.16 0.18,0.71 0.4,1.39 0.67,2.03 -0.02,17.88 -0.05,35.76 -0.07,53.64 -0.11,1.49 -1.13,2.81 -2.73,3.37l0 0.19c5.38,-0.22 10.76,-0.34 16.14,-0.38 0.01,-9.54 0.01,-19.09 0.01,-28.63 3.49,1.29 5.24,1.94 8.74,3.27 0,8.46 0,16.92 0.01,25.37 5.42,0.06 10.84,0.21 16.25,0.45l0 -0.2c-1.59,-0.56 -2.73,-1.89 -2.73,-3.38zm69.91 -31.12c-0.02,-6.8 -0.03,-13.6 -0.05,-20.4 -0.01,-2.15 2.02,-3.84 4.27,-3.7 0.05,0.01 0.07,0.01 0.11,0.01 2.37,0.16 4.29,2.15 4.29,4.33 0.01,8.11 0.03,16.23 0.04,24.34 -3.46,-1.87 -5.19,-2.79 -8.66,-4.58zm22.02 43.08c-0.01,-20.88 -0.01,-41.75 -0.02,-62.63 0.22,-6.69 -5.78,-12.07 -12.05,-12.69 -4.51,-0.24 -6.76,-0.35 -11.27,-0.57 -6.27,-0.57 -11.77,4.6 -12.04,10.71 0.06,19.52 0.12,39.03 0.18,58.56 -0.11,1.55 -1.12,2.76 -2.7,3.04 0.01,0.09 0.01,0.13 0.01,0.21 5.33,0.81 10.66,1.71 15.97,2.7 -0.02,-10.38 -0.05,-20.76 -0.08,-31.14 3.47,1.86 5.2,2.82 8.66,4.77 0.02,9.35 0.04,18.7 0.05,28.06 5.34,1.09 10.67,2.27 15.97,3.54l0 -0.22c-1.56,-0.94 -2.68,-2.66 -2.68,-4.34zm-215.73 9.34c14.15,-0.45 28.29,-0.72 42.44,-0.91l0 1.81c-14.15,-0.19 -28.29,-0.46 -42.44,-0.9zm208.29 0c-14.15,0.44 -28.3,0.71 -42.45,0.9l0 -1.81c14.15,0.18 28.3,0.46 42.45,0.91zm-151.93 -3.25l0 5.84 -1.35 0 0 -2.39 -2.66 0 0 2.39 -1.35 0 0 -5.84 1.35 0 0 2.3 2.66 0 0 -2.3 1.35 0zm7.99 3.56l-0.93 -2.24 -0.93 2.24 1.86 0zm0.42 1.03l-2.71 0 -0.52 1.25 -1.39 0 2.61 -5.84 1.34 0 2.61 5.84 -1.42 0 -0.52 -1.25zm11.05 1.25l-0.01 -3.51 -1.72 2.9 -0.61 0 -1.71 -2.82 0 3.43 -1.27 0 0 -5.84 1.12 0 2.18 3.63 2.16 -3.63 1.11 0 0.02 5.84 -1.27 0zm9.56 -1.19c0.18,-0.12 0.27,-0.3 0.27,-0.54 0,-0.49 -0.36,-0.73 -1.08,-0.73l-1.58 0 0 1.45 1.58 0c0.36,0 0.63,-0.06 0.81,-0.18zm-2.39 -3.64l0 1.38 1.35 0c0.33,0 0.59,-0.06 0.76,-0.17 0.17,-0.12 0.26,-0.29 0.26,-0.52 0,-0.23 -0.09,-0.4 -0.26,-0.51 -0.17,-0.12 -0.43,-0.18 -0.76,-0.18l-1.35 0zm3.74 2.32c0.19,0.25 0.28,0.56 0.28,0.92 0,0.51 -0.2,0.91 -0.6,1.18 -0.39,0.28 -0.97,0.41 -1.74,0.41l-3.02 0 0 -5.84 2.86 0c0.71,0 1.26,0.13 1.64,0.41 0.38,0.27 0.57,0.64 0.57,1.11 0,0.28 -0.07,0.53 -0.21,0.76 -0.13,0.22 -0.32,0.4 -0.57,0.52 0.34,0.11 0.6,0.29 0.79,0.53zm5.13 1.92c-0.46,-0.46 -0.7,-1.12 -0.7,-1.98l0 -3.27 1.36 0 0 3.22c0,1.05 0.43,1.57 1.3,1.57 0.42,0 0.75,-0.12 0.97,-0.38 0.22,-0.25 0.33,-0.65 0.33,-1.19l0 -3.22 1.34 0 0 3.27c0,0.86 -0.23,1.52 -0.7,1.98 -0.46,0.46 -1.11,0.69 -1.95,0.69 -0.83,0 -1.48,-0.23 -1.95,-0.69zm12.5 -3.89c-0.22,-0.17 -0.53,-0.26 -0.93,-0.26l-1.1 0 0 2.04 1.1 0c0.4,0 0.71,-0.09 0.93,-0.27 0.21,-0.18 0.31,-0.43 0.31,-0.75 0,-0.33 -0.1,-0.58 -0.31,-0.76zm0.34 4.48l-1.13 -1.63 -0.07 0 -1.17 0 0 1.63 -1.36 0 0 -5.84 2.53 0c0.52,0 0.97,0.08 1.35,0.25 0.38,0.18 0.68,0.42 0.88,0.74 0.21,0.32 0.31,0.69 0.31,1.13 0,0.43 -0.1,0.81 -0.31,1.12 -0.21,0.32 -0.51,0.56 -0.89,0.72l1.31 1.88 -1.45 0zm9.54 -3.01l1.23 0 0 2.37c-0.31,0.24 -0.68,0.43 -1.1,0.55 -0.42,0.13 -0.84,0.19 -1.26,0.19 -0.61,0 -1.15,-0.13 -1.64,-0.38 -0.48,-0.26 -0.86,-0.62 -1.14,-1.08 -0.27,-0.46 -0.41,-0.98 -0.41,-1.56 0,-0.58 0.14,-1.1 0.41,-1.56 0.28,-0.46 0.66,-0.82 1.15,-1.08 0.49,-0.25 1.04,-0.38 1.65,-0.38 0.52,0 0.98,0.08 1.4,0.25 0.42,0.18 0.77,0.43 1.05,0.76l-0.87 0.8c-0.41,-0.44 -0.92,-0.66 -1.51,-0.66 -0.37,0 -0.7,0.08 -0.99,0.23 -0.29,0.16 -0.52,0.38 -0.68,0.66 -0.16,0.29 -0.24,0.61 -0.24,0.98 0,0.36 0.08,0.68 0.24,0.97 0.16,0.28 0.39,0.5 0.67,0.66 0.29,0.16 0.62,0.24 0.99,0.24 0.38,0 0.74,-0.08 1.05,-0.25l0 -1.71zm6.31 2.42c-0.47,-0.46 -0.7,-1.12 -0.7,-1.98l0 -3.27 1.36 0 0 3.22c0,1.05 0.43,1.57 1.3,1.57 0.42,0 0.74,-0.12 0.97,-0.38 0.22,-0.25 0.33,-0.65 0.33,-1.19l0 -3.22 1.34 0 0 3.27c0,0.86 -0.23,1.52 -0.7,1.98 -0.46,0.46 -1.11,0.69 -1.95,0.69 -0.83,0 -1.48,-0.23 -1.95,-0.69zm13.64 -0.49l0 1.08 -4.53 0 0 -5.84 4.42 0 0 1.08 -3.08 0 0 1.27 2.72 0 0 1.05 -2.72 0 0 1.36 3.19 0zm7.63 -3.4c-0.21,-0.17 -0.52,-0.26 -0.92,-0.26l-1.11 0 0 2.04 1.11 0c0.4,0 0.71,-0.09 0.92,-0.27 0.22,-0.18 0.32,-0.43 0.32,-0.75 0,-0.33 -0.1,-0.58 -0.32,-0.76zm0.35 4.48l-1.13 -1.63 -0.07 0 -1.18 0 0 1.63 -1.35 0 0 -5.84 2.53 0c0.52,0 0.97,0.08 1.35,0.25 0.38,0.18 0.68,0.42 0.88,0.74 0.21,0.32 0.31,0.69 0.31,1.13 0,0.43 -0.1,0.81 -0.31,1.12 -0.21,0.32 -0.51,0.56 -0.89,0.72l1.31 1.88 -1.45 0zm5.58 -5.84l1.36 0 0 5.84 -1.36 0 0 -5.84zm9.34 3.56l-0.92 -2.24 -0.93 2.24 1.85 0zm0.43 1.03l-2.71 0 -0.52 1.25 -1.39 0 2.61 -5.84 1.33 0 2.62 5.84 -1.42 0 -0.52 -1.25z"/>
  <rect class="fil1" width="240.96" height="120.84"/>
 </g>
</svg>
