<?xml version="1.0" encoding="UTF-8"?>
<!DOCTYPE svg PUBLIC "-//W3C//DTD SVG 1.1//EN" "http://www.w3.org/Graphics/SVG/1.1/DTD/svg11.dtd">
<!-- Creator: CorelDRAW 2018 (64 Bit Versão de avaliação) -->
<svg xmlns="http://www.w3.org/2000/svg" xml:space="preserve" width="128px" height="128px" version="1.1" style="shape-rendering:geometricPrecision; text-rendering:geometricPrecision; image-rendering:optimizeQuality; fill-rule:evenodd; clip-rule:evenodd"
viewBox="0 0 76597000 76597000"
 xmlns:xlink="http://www.w3.org/1999/xlink">
 <defs>
  <style type="text/css">
   <![CDATA[
    .fil0 {fill:none}
    .fil1 {fill:#4D4D4D}
   ]]>
  </style>
 </defs>
 <g id="Camada_x0020_1">
  <metadata id="CorelCorpID_0Corel-Layer"/>
  <g id="_2172732144016">
   <rect class="fil0" width="76597000" height="76597000" rx="4877000" ry="4877000"/>
   <path class="fil1" d="M14344000 28334000l0 12352000c0,516000 540000,935000 1030000,935000l12352000 0c546000,0 1028000,-483000 1028000,-1029000l0 -12166000c0,-489000 -417000,-1029000 -935000,-1029000l-12539000 0c-471000,0 -936000,466000 -936000,937000zm4023000 15065000c0,2112000 -286000,2732000 843000,2994000 -816000,1704000 -2152000,6177000 -2152000,8048000l3462000 0c-350000,-730000 -109000,-2347000 113000,-3164000 245000,-903000 738000,-1799000 1276000,-2466000 1925000,-2380000 5111000,-2995000 7957000,-1845000 616000,249000 1434000,821000 1909000,1273000 1045000,995000 2032000,2803000 2032000,4331000 0,832000 70000,1172000 -94000,1871000l15628000 0 -94000 -2339000 -12444000 0c-215000,-918000 -1499000,-3256000 -1499000,-5803000 803000,-423000 562000,-1111000 562000,-2807000 0,-452000 -266000,-841000 -748000,-841000l-16002000 0c-452000,0 -749000,296000 -749000,748000zm11136000 -8516000c0,7495000 1666000,6551000 9639000,6551000l-1873000 7766000c0,2039000 2429000,2869000 3724000,1477000 687000,-740000 1172000,-3656000 1442000,-4733000 232000,-922000 1572000,-5891000 1572000,-6757000 0,-601000 -264000,-745000 -375000,-1216000 -825000,0 -2223000,-363000 -3049000,-599000 -367000,-106000 -560000,-242000 -974000,-242000l-3930000 0c0,-556000 54000,-804000 87000,-1224000 35000,-450000 100000,-843000 100000,-1209000 -725000,-486000 -1568000,-1563000 -2078000,-2320000 -442000,-655000 -1384000,-2504000 -1384000,-3109000 0,-1783000 2464000,-2520000 3277000,-749000l840000 1872000c634000,-463000 586000,-4397000 -2152000,-4397000 -990000,0 -1806000,518000 -2395000,973000 -1638000,1260000 -2471000,6003000 -2471000,7916000zm-2245000 20493000c-1047000,0 -1837000,-460000 -2220000,-1336000 -388000,-885000 -194000,-1807000 414000,-2434000 1501000,-1548000 3936000,-433000 3936000,1524000 0,1142000 -954000,2246000 -2130000,2246000zm-5989000 -2152000c0,3030000 2702000,5708000 5521000,5708000 1989000,0 3230000,-458000 4516000,-1752000 3626000,-3650000 736000,-9850000 -3862000,-9850000 -1934000,0 -3233000,411000 -4610000,1845000 -839000,874000 -1565000,2362000 -1565000,4049000zm34528000 -2339000c3236000,0 3236000,4491000 0,4491000 -1638000,0 -2900000,-2211000 -1522000,-3768000 301000,-341000 919000,-723000 1522000,-723000zm-5707000 2245000c0,3074000 2654000,5802000 5520000,5802000 1996000,0 3131000,-381000 4563000,-1801000 3546000,-3510000 760000,-9801000 -3908000,-9801000 -1926000,0 -3318000,494000 -4517000,1751000 -811000,850000 -1658000,2431000 -1658000,4049000zm-5989000 -18527000c399000,349000 1028000,551000 1028000,1684000 568000,-47000 901000,-350000 1405000,-467000l3848000 11122000c150000,449000 353000,1193000 550000,1604000 908000,-609000 2041000,-2153000 4865000,-2153000 2118000,0 4232000,909000 5430000,2525000 392000,529000 271000,563000 653000,563000 1232000,0 -772000,-3240000 -3394000,-4279000 -2006000,-794000 -2152000,-398000 -3177000,-659000 -532000,-135000 -226000,-33000 -687000,-1185000 -881000,-2206000 -2607000,-3912000 -4765000,-4874000 -378000,-168000 -295000,-76000 -440000,-495000 -73000,-211000 -140000,-445000 -228000,-707000l-979000 -2858000c-509000,-1526000 -1473000,-856000 -2625000,-396000 -427000,171000 -1071000,478000 -1484000,575000zm-10012000 -11697000c197000,132000 197000,164000 436000,312000l5383000 3131000c359000,215000 650000,381000 1007000,585000 292000,168000 683000,475000 1035000,557000l654000 -2339000 -1820000 -1081000c-747000,-429000 -519000,-305000 -519000,-2756000l4116000 0c-992000,-1482000 -3193000,-3649000 -5613000,-3649000 -2973000,0 -4556000,554000 -4583000,4213000 -3000,514000 -96000,556000 -96000,1027000zm-1310000 6176000c0,1803000 2326000,4742000 3795000,5843000 1718000,1290000 4650000,2672000 6872000,2672000 387000,0 673000,-119000 897000,-318000 603000,-534000 741000,-2089000 -714000,-2392000 -2417000,-505000 -4515000,-1045000 -6337000,-3021000 -2259000,-2449000 -1432000,-4001000 -3297000,-4001000 -574000,0 -1216000,643000 -1216000,1217000zm20118000 8983000c1739000,0 1749000,-5989000 0,-5989000 -2455000,0 -4060000,3105000 -2084000,5079000 484000,485000 1155000,910000 2084000,910000zm-12352000 -14691000c0,277000 443000,443000 650000,565000 265000,157000 463000,309000 755000,464000 204000,-427000 317000,-797000 394000,-1390000 224000,-1736000 -311000,-1324000 -1799000,-1324000l0 1685000zm-2151000 3088000c906000,0 673000,42000 841000,-187000 -354000,-83000 -3807000,-2171000 -4305000,-2433000 301000,1288000 1871000,2620000 3464000,2620000z"/>
  </g>
 </g>
</svg>
