<?xml version="1.0" encoding="UTF-8"?>
<!DOCTYPE svg PUBLIC "-//W3C//DTD SVG 1.1//EN" "http://www.w3.org/Graphics/SVG/1.1/DTD/svg11.dtd">
<!-- Creator: CorelDRAW 2018 (64 Bit Versão de avaliação) -->
<svg xmlns="http://www.w3.org/2000/svg" xml:space="preserve" width="128px" height="128px" version="1.1" style="shape-rendering:geometricPrecision; text-rendering:geometricPrecision; image-rendering:optimizeQuality; fill-rule:evenodd; clip-rule:evenodd"
viewBox="0 0 3604000 3604000"
 xmlns:xlink="http://www.w3.org/1999/xlink">
 <defs>
  <style type="text/css">
   <![CDATA[
    .fil0 {fill:#C54628}
    .fil1 {fill:white}
   ]]>
  </style>
 </defs>
 <g id="Camada_x0020_1">
  <metadata id="CorelCorpID_0Corel-Layer"/>
  <g id="_2172899992896">
   <rect class="fil0" width="3604000" height="3604000" rx="229000" ry="229000"/>
   <path class="fil1" d="M675000 1333000l0 581000c0,24000 25000,44000 48000,44000l581000 0c26000,0 49000,-23000 49000,-48000l0 -573000c0,-23000 -20000,-48000 -44000,-48000l-590000 0c-22000,0 -44000,22000 -44000,44000zm189000 709000c0,99000 -13000,128000 40000,141000 -39000,80000 -101000,290000 -101000,378000l162000 0c-16000,-34000 -5000,-110000 6000,-149000 11000,-42000 34000,-84000 60000,-116000 90000,-112000 240000,-141000 374000,-86000 29000,11000 68000,38000 90000,59000 49000,47000 95000,132000 95000,204000 0,39000 4000,55000 -4000,88000l735000 0 -4000 -110000 -586000 0c-10000,-43000 -70000,-153000 -70000,-273000 38000,-20000 26000,-52000 26000,-132000 0,-21000 -12000,-39000 -35000,-39000l-753000 0c-21000,0 -35000,13000 -35000,35000zm524000 -401000c0,353000 78000,308000 453000,308000l-88000 366000c0,96000 115000,135000 176000,69000 32000,-35000 55000,-172000 67000,-223000 11000,-43000 74000,-277000 74000,-317000 0,-29000 -12000,-35000 -17000,-58000 -39000,0 -105000,-17000 -144000,-28000 -17000,-5000 -26000,-11000 -46000,-11000l-184000 0c0,-26000 2000,-38000 4000,-58000 1000,-21000 4000,-39000 4000,-57000 -34000,-23000 -73000,-73000 -97000,-109000 -21000,-31000 -66000,-118000 -66000,-146000 0,-84000 116000,-119000 155000,-35000l39000 88000c30000,-22000 28000,-207000 -101000,-207000 -47000,0 -85000,24000 -113000,46000 -77000,59000 -116000,282000 -116000,372000zm-106000 964000c-49000,0 -86000,-21000 -104000,-63000 -18000,-41000 -9000,-85000 19000,-114000 71000,-73000 186000,-21000 186000,72000 0,53000 -45000,105000 -101000,105000zm-281000 -101000c0,143000 127000,268000 259000,268000 94000,0 152000,-21000 213000,-82000 170000,-172000 34000,-463000 -182000,-463000 -91000,0 -152000,19000 -217000,86000 -39000,42000 -73000,112000 -73000,191000zm1624000 -110000c152000,0 152000,211000 0,211000 -77000,0 -136000,-104000 -72000,-177000 15000,-16000 44000,-34000 72000,-34000zm-269000 106000c0,144000 125000,272000 260000,272000 94000,0 147000,-17000 215000,-84000 167000,-165000 36000,-461000 -184000,-461000 -91000,0 -156000,23000 -212000,82000 -39000,40000 -79000,114000 -79000,191000zm-281000 -872000c19000,16000 48000,26000 48000,79000 27000,-2000 42000,-16000 66000,-22000l181000 523000c7000,22000 17000,57000 26000,76000 43000,-29000 96000,-101000 229000,-101000 100000,0 199000,42000 255000,118000 19000,25000 13000,27000 31000,27000 58000,0 -36000,-153000 -160000,-201000 -94000,-38000 -101000,-19000 -149000,-31000 -25000,-7000 -11000,-2000 -32000,-56000 -42000,-104000 -123000,-184000 -224000,-229000 -18000,-8000 -14000,-4000 -21000,-24000 -4000,-10000 -7000,-21000 -11000,-33000l-46000 -134000c-24000,-72000 -69000,-41000 -123000,-19000 -21000,8000 -51000,22000 -70000,27000zm-471000 -550000c9000,6000 9000,7000 20000,14000l254000 148000c16000,10000 30000,18000 47000,27000 14000,8000 32000,22000 49000,26000l30000 -110000 -85000 -51000c-35000,-20000 -25000,-14000 -25000,-129000l194000 0c-47000,-70000 -150000,-172000 -264000,-172000 -140000,0 -214000,26000 -216000,198000 0,24000 -4000,26000 -4000,49000zm-62000 290000c0,85000 110000,223000 179000,275000 80000,61000 218000,126000 323000,126000 18000,0 32000,-6000 42000,-15000 28000,-25000 35000,-98000 -33000,-113000 -114000,-23000 -213000,-49000 -299000,-142000 -106000,-115000 -67000,-188000 -155000,-188000 -27000,0 -57000,30000 -57000,57000zm947000 423000c81000,0 82000,-282000 0,-282000 -116000,0 -191000,146000 -98000,239000 22000,23000 54000,43000 98000,43000zm-582000 -691000c0,13000 21000,21000 31000,26000 13000,8000 22000,15000 36000,22000 9000,-20000 14000,-37000 18000,-65000 11000,-82000 -15000,-63000 -85000,-63000l0 80000zm-101000 145000c43000,0 32000,2000 40000,-9000 -17000,-4000 -179000,-102000 -203000,-114000 14000,60000 88000,123000 163000,123000z"/>
  </g>
 </g>
</svg>
