<?xml version="1.0" encoding="UTF-8"?>
<!DOCTYPE svg PUBLIC "-//W3C//DTD SVG 1.1//EN" "http://www.w3.org/Graphics/SVG/1.1/DTD/svg11.dtd">
<!-- Creator: CorelDRAW 2018 (64 Bit Versão de avaliação) -->
<svg xmlns="http://www.w3.org/2000/svg" xml:space="preserve" width="128px" height="128px" version="1.1" style="shape-rendering:geometricPrecision; text-rendering:geometricPrecision; image-rendering:optimizeQuality; fill-rule:evenodd; clip-rule:evenodd"
viewBox="0 0 3551000 3551000"
 xmlns:xlink="http://www.w3.org/1999/xlink">
 <defs>
  <style type="text/css">
   <![CDATA[
    .fil0 {fill:none}
    .fil1 {fill:#4D4D4D}
   ]]>
  </style>
 </defs>
 <g id="Camada_x0020_1">
  <metadata id="CorelCorpID_0Corel-Layer"/>
  <g id="_2173122004256">
   <rect class="fil0" width="3551000" height="3551000" rx="226000" ry="226000"/>
   <path class="fil1" d="M429000 1772000c0,159000 73000,247000 173000,346000 28000,28000 238000,232000 256000,258000 92000,-7000 231000,8000 299000,-22000 44000,-20000 80000,-46000 114000,-80000 3000,-3000 3000,-3000 5000,-5000l56000 -56000c1000,-1000 2000,-2000 2000,-2000l8000 -8000c0,0 1000,-1000 2000,-2000l39000 -39000c2000,-2000 4000,-4000 5000,-5000l62000 -62000c5000,-5000 6000,-6000 11000,-11000 1000,-1000 1000,-1000 2000,-2000l58000 -58000c0,0 1000,-1000 2000,-2000l91000 -91000c1000,-1000 1000,-1000 2000,-2000l13000 -13000c45000,-45000 83000,-84000 162000,-84000 29000,0 54000,7000 75000,14000 62000,22000 102000,79000 148000,125000 61000,61000 120000,119000 181000,181000 44000,44000 138000,147000 185000,177000 123000,77000 209000,23000 314000,47000 34000,-51000 308000,-287000 373000,-395000 72000,-119000 74000,-288000 2000,-408000 -69000,-114000 -340000,-346000 -375000,-398000 -111000,26000 -180000,-30000 -310000,45000 -57000,33000 -376000,372000 -452000,443000 -79000,73000 -198000,79000 -275000,1000l-41000 -42000c-1000,0 -1000,-1000 -2000,-2000l-196000 -195000c0,-1000 -1000,-2000 -2000,-2000l-52000 -53000c0,0 -1000,-1000 -2000,-1000l-93000 -94000c-32000,-33000 -68000,-57000 -110000,-76000 -63000,-29000 -141000,-20000 -211000,-20000l-90000 -4000c-18000,27000 -227000,229000 -255000,257000 -46000,46000 -83000,80000 -118000,138000 -30000,50000 -56000,122000 -56000,202000zm548000 -709000c261000,0 291000,49000 457000,216000l251000 251000c26000,26000 55000,66000 94000,75000 49000,10000 79000,-32000 104000,-58000 82000,-82000 364000,-373000 425000,-415000 31000,-20000 74000,-42000 115000,-53000 75000,-18000 77000,-12000 155000,-12000 -5000,-18000 -160000,-166000 -176000,-182000 -61000,-61000 -119000,-119000 -179000,-179000 -31000,-31000 -59000,-59000 -90000,-90000 -109000,-109000 -190000,-187000 -361000,-187000 -202000,0 -308000,142000 -439000,273000 -61000,61000 -119000,119000 -179000,179000 -17000,17000 -172000,164000 -177000,182000zm0 1425000c5000,18000 159000,164000 175000,180000 83000,83000 272000,280000 360000,357000 158000,138000 405000,128000 552000,-21000l470000 -470000c13000,-13000 40000,-32000 44000,-49000 -67000,0 -85000,4000 -149000,-12000 -129000,-32000 -195000,-118000 -285000,-208000l-246000 -246000c-57000,-57000 -55000,-72000 -118000,-72000 -32000,0 -75000,55000 -95000,74000l-251000 252000c-166000,166000 -195000,215000 -457000,215000z"/>
  </g>
 </g>
</svg>
