<?xml version="1.0" encoding="UTF-8"?>
<!DOCTYPE svg PUBLIC "-//W3C//DTD SVG 1.1//EN" "http://www.w3.org/Graphics/SVG/1.1/DTD/svg11.dtd">
<!-- Creator: CorelDRAW 2018 (64 Bit Versão de avaliação) -->
<svg xmlns="http://www.w3.org/2000/svg" xml:space="preserve" width="128px" height="128px" version="1.1" style="shape-rendering:geometricPrecision; text-rendering:geometricPrecision; image-rendering:optimizeQuality; fill-rule:evenodd; clip-rule:evenodd"
viewBox="0 0 1797000 1797000"
 xmlns:xlink="http://www.w3.org/1999/xlink">
 <defs>
  <style type="text/css">
   <![CDATA[
    .fil0 {fill:#C54628}
    .fil1 {fill:white}
   ]]>
  </style>
 </defs>
 <g id="Camada_x0020_1">
  <metadata id="CorelCorpID_0Corel-Layer"/>
  <g id="_2172257007424">
   <rect class="fil0" width="1797000" height="1797000" rx="114000" ry="114000"/>
   <path class="fil1" d="M217000 897000c0,80000 37000,125000 87000,175000 15000,14000 121000,117000 130000,131000 47000,-4000 117000,3000 151000,-12000 23000,-10000 41000,-23000 58000,-40000 2000,-1000 2000,-1000 3000,-3000l28000 -28000c1000,0 1000,-1000 1000,-1000l4000 -4000c0,0 1000,-1000 1000,-1000l20000 -20000c1000,-1000 2000,-2000 3000,-2000l31000 -32000c2000,-2000 3000,-3000 5000,-5000 1000,-1000 1000,-1000 1000,-1000l30000 -30000c0,0 0,0 1000,0l46000 -47000c0,0 1000,0 1000,-1000l6000 -6000c23000,-23000 42000,-43000 82000,-43000 15000,0 28000,4000 38000,7000 32000,11000 52000,40000 75000,63000 31000,31000 61000,61000 92000,92000 22000,22000 70000,75000 93000,90000 63000,39000 106000,11000 159000,24000 18000,-26000 156000,-146000 189000,-200000 36000,-61000 38000,-146000 1000,-207000 -35000,-58000 -172000,-175000 -190000,-201000 -56000,13000 -91000,-15000 -156000,22000 -29000,17000 -191000,189000 -229000,225000 -40000,37000 -100000,40000 -140000,0l-20000 -21000c0,0 -1000,-1000 -1000,-1000l-99000 -99000c-1000,0 -1000,-1000 -1000,-1000l-27000 -26000c0,-1000 0,-1000 -1000,-1000l-47000 -48000c-16000,-16000 -34000,-29000 -55000,-38000 -32000,-15000 -72000,-10000 -107000,-10000l-46000 -2000c-9000,13000 -114000,115000 -129000,129000 -23000,24000 -42000,41000 -60000,71000 -15000,25000 -28000,61000 -28000,102000zm278000 -359000c132000,0 146000,25000 231000,109000l127000 128000c13000,12000 27000,33000 47000,37000 25000,6000 40000,-16000 53000,-29000 42000,-42000 184000,-189000 215000,-210000 16000,-10000 37000,-22000 58000,-27000 38000,-9000 39000,-6000 79000,-6000 -3000,-9000 -81000,-84000 -89000,-92000 -31000,-31000 -60000,-60000 -91000,-91000 -16000,-15000 -30000,-30000 -45000,-45000 -56000,-55000 -97000,-95000 -183000,-95000 -102000,0 -156000,72000 -222000,138000 -31000,31000 -60000,60000 -91000,91000 -8000,8000 -87000,83000 -89000,92000zm0 721000c2000,10000 80000,83000 88000,91000 42000,42000 138000,142000 182000,181000 80000,70000 205000,65000 280000,-11000l238000 -237000c6000,-7000 19000,-17000 22000,-26000 -34000,0 -44000,3000 -76000,-5000 -65000,-17000 -98000,-60000 -144000,-105000l-124000 -125000c-29000,-29000 -28000,-36000 -60000,-36000 -16000,0 -38000,27000 -48000,37000l-127000 127000c-84000,84000 -99000,109000 -231000,109000z"/>
  </g>
 </g>
</svg>
