<?xml version="1.0" encoding="UTF-8"?>
<!DOCTYPE svg PUBLIC "-//W3C//DTD SVG 1.1//EN" "http://www.w3.org/Graphics/SVG/1.1/DTD/svg11.dtd">
<!-- Creator: CorelDRAW 2018 (64 Bit Versão de avaliação) -->
<svg xmlns="http://www.w3.org/2000/svg" xml:space="preserve" width="128px" height="128px" version="1.1" style="shape-rendering:geometricPrecision; text-rendering:geometricPrecision; image-rendering:optimizeQuality; fill-rule:evenodd; clip-rule:evenodd"
viewBox="0 0 2075000 2075000"
 xmlns:xlink="http://www.w3.org/1999/xlink">
 <defs>
  <style type="text/css">
   <![CDATA[
    .fil0 {fill:none}
    .fil1 {fill:#4D4D4D}
   ]]>
  </style>
 </defs>
 <g id="Camada_x0020_1">
  <metadata id="CorelCorpID_0Corel-Layer"/>
  <g id="_2172889307472">
   <rect class="fil0" width="2075000" height="2075000" rx="132000" ry="132000"/>
   <path id="XMLID_18_" class="fil1" d="M1570000 1116000l0 -62000c71000,-45000 118000,-124000 119000,-214000 0,-1000 0,-1000 0,-1000 0,-1000 0,-1000 0,-1000 0,0 0,0 0,-1000 0,-1000 0,-3000 -1000,-4000 0,-1000 0,-2000 0,-3000 0,-1000 0,-2000 0,-3000 -1000,-2000 -1000,-3000 -2000,-5000 0,0 0,0 0,-1000l0 0c0,0 0,0 0,0l-118000 -394000c-8000,-25000 -31000,-42000 -57000,-42000l-947000 0c-26000,0 -49000,17000 -57000,42000l-118000 394000c0,0 0,0 0,0l0 0c0,1000 0,1000 0,1000 -1000,2000 -1000,3000 -1000,5000 -1000,1000 -1000,2000 -1000,3000 0,1000 0,2000 0,3000 0,1000 0,3000 0,4000 0,1000 -1000,1000 -1000,1000 0,0 0,0 0,1000 0,0 1000,0 1000,1000 0,90000 47000,169000 118000,214000l0 577000c0,33000 26000,60000 59000,60000l536000 0 411000 0c33000,0 59000,-27000 59000,-60000l0 -515000 0 0zm-420000 456000l-88000 0 -439000 0 0 -478000c7000,1000 13000,1000 20000,1000 79000,0 150000,-36000 197000,-93000 47000,57000 118000,93000 198000,93000 79000,0 150000,-36000 197000,-93000 47000,57000 118000,93000 197000,93000 7000,0 13000,0 20000,-1000l0 22000 0 456000 -302000 0zm-542000 -1069000l859000 0 103000 343000c-4000,73000 -64000,130000 -138000,130000 -76000,0 -138000,-61000 -138000,-138000 0,-32000 -26000,-59000 -59000,-59000 -33000,0 -59000,27000 -59000,59000 0,77000 -62000,138000 -138000,138000 -77000,0 -139000,-61000 -139000,-138000 0,-32000 -26000,-59000 -59000,-59000 -32000,0 -59000,27000 -59000,59000 0,77000 -62000,138000 -138000,138000 -74000,0 -134000,-57000 -138000,-130000l103000 -343000z"/>
  </g>
 </g>
</svg>
