<?xml version="1.0" encoding="UTF-8"?>
<!DOCTYPE svg PUBLIC "-//W3C//DTD SVG 1.1//EN" "http://www.w3.org/Graphics/SVG/1.1/DTD/svg11.dtd">
<!-- Creator: CorelDRAW 2018 (64 Bit Versão de avaliação) -->
<svg xmlns="http://www.w3.org/2000/svg" xml:space="preserve" width="128px" height="128px" version="1.1" style="shape-rendering:geometricPrecision; text-rendering:geometricPrecision; image-rendering:optimizeQuality; fill-rule:evenodd; clip-rule:evenodd"
viewBox="0 0 1347000 1347000"
 xmlns:xlink="http://www.w3.org/1999/xlink">
 <defs>
  <style type="text/css">
   <![CDATA[
    .fil0 {fill:#C54628}
    .fil1 {fill:white}
   ]]>
  </style>
 </defs>
 <g id="Camada_x0020_1">
  <metadata id="CorelCorpID_0Corel-Layer"/>
  <g id="_2173119634160">
   <rect class="fil0" width="1347000" height="1347000" rx="86000" ry="86000"/>
   <path id="XMLID_18_" class="fil1" d="M1019000 724000l0 -40000c46000,-29000 77000,-81000 77000,-139000 0,0 0,0 0,-1000 0,0 0,0 0,0 0,0 0,0 0,-1000 0,-1000 0,-2000 0,-3000 0,0 0,-1000 0,-1000 -1000,-1000 -1000,-2000 -1000,-2000 0,-1000 0,-2000 0,-3000 -1000,0 -1000,-1000 -1000,-1000l0 0c0,0 0,0 0,0l-76000 -256000c-5000,-16000 -20000,-27000 -37000,-27000l-615000 0c-17000,0 -32000,11000 -37000,27000l-76000 256000c0,0 0,0 0,0l-1000 0c0,0 0,1000 0,1000 0,1000 0,2000 0,3000 -1000,0 -1000,1000 -1000,2000 0,0 0,1000 0,1000 0,1000 0,2000 0,3000 0,1000 0,1000 0,1000 0,0 0,0 0,0 0,1000 0,1000 0,1000 0,58000 31000,110000 77000,139000l0 375000c0,21000 17000,38000 38000,38000l348000 0 267000 0c21000,0 38000,-17000 38000,-38000l0 -335000 0 0zm-273000 296000l-57000 0 -285000 0 0 -310000c5000,0 9000,1000 13000,1000 52000,0 98000,-24000 128000,-61000 31000,37000 77000,61000 128000,61000 52000,0 98000,-24000 128000,-61000 31000,37000 77000,61000 129000,61000 4000,0 8000,-1000 12000,-1000l0 14000 0 296000 -196000 0zm-351000 -694000l557000 0 67000 223000c-3000,47000 -42000,85000 -89000,85000 -50000,0 -90000,-40000 -90000,-90000 0,-21000 -17000,-38000 -39000,-38000 -21000,0 -38000,17000 -38000,38000 0,50000 -40000,90000 -90000,90000 -49000,0 -89000,-40000 -89000,-90000 0,-21000 -17000,-38000 -39000,-38000 -21000,0 -38000,17000 -38000,38000 0,50000 -40000,90000 -90000,90000 -47000,0 -87000,-38000 -89000,-85000l67000 -223000z"/>
  </g>
 </g>
</svg>
