<?xml version="1.0" encoding="UTF-8"?>
<!DOCTYPE svg PUBLIC "-//W3C//DTD SVG 1.1//EN" "http://www.w3.org/Graphics/SVG/1.1/DTD/svg11.dtd">
<!-- Creator: CorelDRAW 2018 (64 Bit Versão de avaliação) -->
<svg xmlns="http://www.w3.org/2000/svg" xml:space="preserve" width="130px" height="130px" version="1.1" style="shape-rendering:geometricPrecision; text-rendering:geometricPrecision; image-rendering:optimizeQuality; fill-rule:evenodd; clip-rule:evenodd"
viewBox="0 0 12.96 12.96"
 xmlns:xlink="http://www.w3.org/1999/xlink">
 <defs>
  <style type="text/css">
   <![CDATA[
    .str0 {stroke:#E6E6E6;stroke-width:0.23;stroke-miterlimit:22.9256}
    .fil1 {fill:#4D4D4D}
    .fil0 {fill:white}
   ]]>
  </style>
 </defs>
 <g id="Camada_x0020_1">
  <metadata id="CorelCorpID_0Corel-Layer"/>
  <circle class="fil0 str0" cx="6.48" cy="6.48" r="6.36"/>
  <path class="fil1" d="M4.12 2.91l5.35 0 0 7.14 -0.44 0 0 0.2 0.55 0c0.06,0 0.1,-0.03 0.1,-0.1l0 -7.35c0,-0.06 -0.04,-0.1 -0.1,-0.1l-5.57 0c-0.06,0 -0.1,0.04 -0.1,0.1l0 0.89 -0.32 0c-0.15,0 -0.31,0.16 -0.31,0.31 0,0.24 -0.05,0.55 0.44,0.55l0.19 0 0 0.72 -0.32 0c-0.16,0 -0.31,0.15 -0.31,0.31l0 0.22c0,0.15 0.15,0.31 0.31,0.31l0.32 0 0 0.74 -0.32 0c-0.16,0 -0.31,0.15 -0.31,0.31l0 0.22c0,0.15 0.15,0.31 0.31,0.31l0.32 0 0 0.73 -0.32 0c-0.16,0 -0.31,0.16 -0.31,0.31l0 0.23c0,0.15 0.16,0.31 0.31,0.31l0.32 0 0 0.88c0,0.07 0.04,0.1 0.1,0.1l4.51 0 0 -0.2 -4.4 0 0 -7.14zm-0.64 5.97c0,-0.28 0.04,-0.25 0.43,-0.25l0 0.43c-0.24,0 -0.43,0.04 -0.43,-0.18zm0 -1.55c0,-0.31 0.02,-0.28 0.43,-0.28l0 0.43c-0.19,0 -0.43,0.04 -0.43,-0.15zm0 -1.58c0,-0.31 0.03,-0.28 0.43,-0.28l0 0.43c-0.2,0 -0.43,0.04 -0.43,-0.15zm0 -1.57c0,-0.32 0.04,-0.28 0.43,-0.28l0 0.42c-0.2,0 -0.43,0.05 -0.43,-0.14zm1.23 2.62l4.17 0 0 0.24 -4.17 0 0 -0.24zm2.08 -2c0.98,0 1.72,0.79 1.72,1.78l-3.43 0c0,-0.99 0.74,-1.78 1.71,-1.78zm-0.36 -0.18c0.02,-0.18 0.16,-0.34 0.36,-0.34 0.2,0 0.35,0.15 0.37,0.34l-0.27 -0.04 -0.19 0.01 -0.27 0.03zm-0.22 0.06c-0.35,0.08 -0.72,0.39 -0.92,0.64 -0.27,0.33 -0.42,0.73 -0.42,1.26 -0.44,0 -0.37,-0.05 -0.37,0.56 0,0.07 0.05,0.12 0.12,0.12l4.35 0c0.05,0 0.12,-0.04 0.12,-0.09 0,-0.64 0.07,-0.59 -0.37,-0.59l0 -0.13c0,-0.83 -0.68,-1.62 -1.34,-1.77 0,-0.81 -1.17,-0.81 -1.17,0zm-1.71 3.02c0,0.1 0.04,0.13 0.15,0.13l4.29 0c0.22,0 0.16,-0.22 0.06,-0.22l-4.41 0c-0.04,0 -0.09,0.06 -0.09,0.09zm0 0.53c0,0.1 0.04,0.14 0.15,0.14l4.29 0c0.22,0 0.16,-0.23 0.06,-0.23l-4.41 0c-0.04,0 -0.09,0.06 -0.09,0.09zm0.55 0.53c0,0.1 0.04,0.14 0.14,0.14l3.21 0c0.22,0 0.15,-0.22 0.05,-0.22l-3.31 0c-0.04,0 -0.09,0.05 -0.09,0.08z"/>
 </g>
</svg>
